<svg width="24" height="24" viewBox="0 0 24 24" fill="none" xmlns="http://www.w3.org/2000/svg">
<g clip-path="url(#clip0_1590_5)">
<path d="M5.99897 8.48399L7.18628 4.06009C7.26811 3.73695 7.41183 3.46474 7.61744 3.24344C7.82306 3.02214 8.06429 2.85371 8.34113 2.73813C8.61797 2.62255 8.90736 2.56947 9.20929 2.57887C9.51122 2.58828 9.80583 2.6775 10.0931 2.84653L14.0736 5.11299L18.5445 4.79066C18.9957 4.74675 19.4057 4.84198 19.7745 5.07634C20.1432 5.3107 20.4111 5.62782 20.578 6.0277C20.6551 6.21227 20.7052 6.40806 20.7284 6.6151C20.7517 6.82213 20.7371 7.03593 20.6847 7.25648L19.6494 11.9149L21.3213 15.6599C21.5614 16.1918 21.5739 16.7193 21.3589 17.2425C21.1439 17.7658 20.7903 18.1301 20.2981 18.3356C20.2674 18.3484 20.0886 18.396 19.7617 18.4783L15.1505 19.0488L11.5025 21.9263C11.4385 21.9892 11.3619 22.0437 11.2729 22.0899C11.1838 22.1362 11.1008 22.1753 11.0239 22.2074C10.5317 22.4129 10.024 22.4081 9.50081 22.1931C8.97758 21.9781 8.61129 21.5982 8.40194 21.0535L6.90503 17.2084L2.89751 14.6823C2.70384 14.5645 2.54156 14.4245 2.41068 14.2624C2.2798 14.1004 2.17583 13.927 2.09878 13.7425C1.93825 13.358 1.90047 12.9538 1.98543 12.53C2.0704 12.1063 2.28393 11.7417 2.62602 11.4363L5.99897 8.48399ZM7.79398 9.6039L3.93476 12.9489L8.5195 15.8842L10.2668 20.3291L14.3511 17.134L19.5045 16.4996L17.563 12.1086L18.719 6.83092L13.6077 7.17678L9.11165 4.58375L7.79398 9.6039Z" fill="#E3E3E3"/>
</g>
<defs>
<clipPath id="clip0_1590_5">
<rect width="24" height="24" fill="white"/>
</clipPath>
</defs>
</svg>
